<mxfile host="app.diagrams.net" agent="Mozilla/5.0 (Macintosh; Intel Mac OS X 10_15_7) AppleWebKit/537.36 (KHTML, like Gecko) Chrome/128.0.0.0 Safari/537.36 Edg/128.0.0.0" version="24.7.17">
  <diagram name="Page-1" id="ZZ0Nn_WxonaR16C9qJPm">
    <mxGraphModel dx="1136" dy="769" grid="1" gridSize="10" guides="1" tooltips="1" connect="1" arrows="1" fold="1" page="1" pageScale="1" pageWidth="827" pageHeight="1169" math="0" shadow="0">
      <root>
        <mxCell id="0" />
        <mxCell id="1" parent="0" />
        <mxCell id="qtt0etHDLDeTt4t_hgWq-18" value="" style="ellipse;fillColor=#F08705;opacity=60;strokeColor=none;html=1;fontColor=#FFFFFF;" vertex="1" parent="1">
          <mxGeometry x="180" y="310" width="500" height="500" as="geometry" />
        </mxCell>
        <mxCell id="qtt0etHDLDeTt4t_hgWq-19" value="" style="ellipse;fillColor=#12AAB5;opacity=60;strokeColor=none;html=1;fontColor=#FFFFFF;" vertex="1" parent="1">
          <mxGeometry x="20" y="20" width="500" height="500" as="geometry" />
        </mxCell>
        <mxCell id="qtt0etHDLDeTt4t_hgWq-20" value="" style="ellipse;fillColor=#e85642;opacity=60;strokeColor=none;html=1;fontColor=#FFFFFF;" vertex="1" parent="1">
          <mxGeometry x="330" y="20" width="500" height="500" as="geometry" />
        </mxCell>
        <mxCell id="qtt0etHDLDeTt4t_hgWq-21" value="AB&lt;sup&gt;I&lt;/sup&gt;C&lt;sup&gt;I&lt;/sup&gt;" style="text;fontSize=24;align=center;verticalAlign=middle;html=1;fontColor=#FFFFFF;" vertex="1" parent="1">
          <mxGeometry x="140" y="230" width="190" height="70" as="geometry" />
        </mxCell>
        <mxCell id="qtt0etHDLDeTt4t_hgWq-22" value="A&lt;sup&gt;I&lt;/sup&gt;BC&lt;sup&gt;I&lt;/sup&gt;" style="text;fontSize=24;align=center;verticalAlign=middle;html=1;fontColor=#FFFFFF;" vertex="1" parent="1">
          <mxGeometry x="540" y="230" width="190" height="70" as="geometry" />
        </mxCell>
        <mxCell id="qtt0etHDLDeTt4t_hgWq-23" value="A&lt;sup&gt;I&lt;/sup&gt;B&lt;sup&gt;I&lt;/sup&gt;C" style="text;fontSize=24;align=center;verticalAlign=middle;html=1;fontColor=#FFFFFF;" vertex="1" parent="1">
          <mxGeometry x="340" y="560" width="190" height="70" as="geometry" />
        </mxCell>
        <mxCell id="qtt0etHDLDeTt4t_hgWq-24" value="ABC&lt;sup&gt;I&lt;/sup&gt;" style="text;align=center;html=1;fontColor=#FFFFFF;fontSize=16;" vertex="1" parent="1">
          <mxGeometry x="410" y="200" width="40" height="40" as="geometry" />
        </mxCell>
        <mxCell id="qtt0etHDLDeTt4t_hgWq-25" value="AB&lt;sup&gt;I&lt;/sup&gt;C" style="text;align=center;html=1;fontColor=#FFFFFF;fontSize=16;" vertex="1" parent="1">
          <mxGeometry x="290" y="420" width="40" height="40" as="geometry" />
        </mxCell>
        <mxCell id="qtt0etHDLDeTt4t_hgWq-26" value="A&lt;sup&gt;I&lt;/sup&gt;BC" style="text;align=center;html=1;fontColor=#FFFFFF;fontSize=16;" vertex="1" parent="1">
          <mxGeometry x="540" y="420" width="40" height="40" as="geometry" />
        </mxCell>
        <mxCell id="qtt0etHDLDeTt4t_hgWq-27" value="ABC" style="text;align=center;html=1;fontColor=#FFFFFF;fontSize=16;" vertex="1" parent="1">
          <mxGeometry x="410" y="350" width="40" height="40" as="geometry" />
        </mxCell>
        <mxCell id="qtt0etHDLDeTt4t_hgWq-28" value="&lt;font style=&quot;font-size: 24px;&quot;&gt;A&lt;sup&gt;I&lt;/sup&gt;B&lt;sup&gt;I&lt;/sup&gt;C&lt;sup&gt;I&lt;/sup&gt;&lt;/font&gt;" style="text;html=1;align=center;verticalAlign=middle;whiteSpace=wrap;rounded=0;" vertex="1" parent="1">
          <mxGeometry x="750" y="610" width="80" height="50" as="geometry" />
        </mxCell>
        <mxCell id="qtt0etHDLDeTt4t_hgWq-29" value="&lt;font style=&quot;font-size: 24px;&quot;&gt;A&lt;/font&gt;" style="text;html=1;align=center;verticalAlign=middle;whiteSpace=wrap;rounded=0;" vertex="1" parent="1">
          <mxGeometry x="80" y="30" width="60" height="30" as="geometry" />
        </mxCell>
        <mxCell id="qtt0etHDLDeTt4t_hgWq-30" value="&lt;font style=&quot;font-size: 24px;&quot;&gt;B&lt;/font&gt;" style="text;html=1;align=center;verticalAlign=middle;whiteSpace=wrap;rounded=0;" vertex="1" parent="1">
          <mxGeometry x="740" y="30" width="60" height="30" as="geometry" />
        </mxCell>
        <mxCell id="qtt0etHDLDeTt4t_hgWq-31" value="&lt;font style=&quot;font-size: 24px;&quot;&gt;C&lt;/font&gt;" style="text;html=1;align=center;verticalAlign=middle;whiteSpace=wrap;rounded=0;" vertex="1" parent="1">
          <mxGeometry x="410" y="830" width="80" height="40" as="geometry" />
        </mxCell>
      </root>
    </mxGraphModel>
  </diagram>
</mxfile>
